<?xml version="1.0" standalone="no"?><!DOCTYPE svg PUBLIC "-//W3C//DTD SVG 1.1//EN" "http://www.w3.org/Graphics/SVG/1.1/DTD/svg11.dtd"><svg t="1747536337345" class="icon" viewBox="0 0 1024 1024" version="1.1" xmlns="http://www.w3.org/2000/svg" p-id="15309" xmlns:xlink="http://www.w3.org/1999/xlink" width="200" height="200"><path d="M425.196 71.992c-119.2 23.7-221 95.1-285.7 193.4h163.8c28-87.6 71-156.3 121.9-193.4z m173.6 0c50.9 37.1 93.5 105.8 121.9 193.4h163.4c-64.3-98.3-166.5-169.7-285.3-193.4z m-64.7 16.6v176.8h143.2c-31.9-95.5-82-163.8-143.2-176.8z m-44.6 0.4c-60 14.2-109.3 81.7-140.9 176.4h140.9v-176.4z m-376.1 221.4c-27.2 54.5-43.8 114.8-47 179.2h200.5c1.6-63.9 9.9-124.3 23.7-179.2h-177.2z m222.6 0c-13.8 54.5-21.7 115.6-23.3 179.2h176.8v-179.2h-153.5z m198.1 0v179.1h179.2c-1.6-63.5-9.5-124.7-23.3-179.2h-155.9z m199.3 0c13.4 54.9 22.1 115.2 23.7 179.2h200.5c-3.2-64.3-19.7-124.7-47-179.2h-177.2z m-666.9 224.1c3.2 64.3 19.7 125.1 47 179.2h176.8c-13.4-54.5-21.7-115.2-23.3-179.2h-200.5z m246.2 0c1.6 63.9 9.5 124.7 23.3 179.2h153.5v-179.2h-176.8z m221.4 0v179.2h155.9c13.8-54.5 22.1-115.2 23.3-179.2h-179.2z m223 0c-1.6 63.9-9.9 124.7-23.3 179.2h176.8c27.2-54.1 43.8-114.8 47-179.2h-200.5z m-617.6 224.1c64.3 98.3 166.1 169.7 284.9 193.4-50.5-37.1-93.1-105.8-121.1-193.4h-163.8z m209.1 0c31.6 95.1 80.5 163 140.9 176.8v-176.8h-140.9z m185.5 0v177.2c61.6-13 111.7-81.3 143.2-177.2h-143.2z m186.7 0c-28 87.6-70.6 156.3-121.1 193.4 118.8-23.7 220.6-95.1 284.9-193.4h-163.8z" fill="#F39021" p-id="15310"></path></svg>