<?xml version="1.0" standalone="no"?><!DOCTYPE svg PUBLIC "-//W3C//DTD SVG 1.1//EN" "http://www.w3.org/Graphics/SVG/1.1/DTD/svg11.dtd"><svg t="1747036365338" class="icon" viewBox="0 0 1025 1024" version="1.1" xmlns="http://www.w3.org/2000/svg" p-id="11009" xmlns:xlink="http://www.w3.org/1999/xlink" width="200.1953125" height="200"><path d="M258.304 446.528L111.776 192.736C205.6 75.264 350.016 0 512.032 0c187.424 0 351.296 100.736 440.544 251.008h-417.76c-7.52-0.64-15.104-0.992-22.752-0.992-121.888 0-224.576 83.648-253.728 196.544z m437.024-121.536H988.8c22.752 57.92 35.232 120.992 35.232 187.008 0 280.832-226.112 508.8-506.176 511.936l209.408-362.688c29.472-42.368 46.784-93.824 46.784-149.248 0-73.184-30.176-139.424-78.688-187.008zM326.048 512c0-102.56 83.424-186.016 186.016-186.016S698.08 409.408 698.08 512c0 102.56-83.456 186.016-186.016 186.016S326.048 614.56 326.048 512z m256.16 252.448l-146.592 253.888C189.088 981.44 0 768.832 0 512.032 0 420.8 23.872 335.2 65.696 260.992L274.72 623.04C316.576 712.16 407.2 774.016 512 774.016c24.288 0 47.84-3.328 70.176-9.568z" fill="#707070" p-id="11010"></path></svg>