<?xml version="1.0" standalone="no"?><!DOCTYPE svg PUBLIC "-//W3C//DTD SVG 1.1//EN" "http://www.w3.org/Graphics/SVG/1.1/DTD/svg11.dtd"><svg t="1747036274384" class="icon" viewBox="0 0 1024 1024" version="1.1" xmlns="http://www.w3.org/2000/svg" p-id="10845" xmlns:xlink="http://www.w3.org/1999/xlink" width="200" height="200"><path d="M561.371429 6.034286zM682.422857 987.428571l3.108572-1.28-4.571429 1.828572zM705.645714 977.92h1.462857l-4.205714 1.828571zM586.057143 8.96zM610.56 1006.811429h1.462857-4.205714zM720.64 630.674286v-0.182857 0.182857zM610.56 13.165714h-3.108571l5.302857 1.097143zM586.057143 1011.017143h1.645714-2.377143zM728.32 967.862857h1.645714l-2.377143 1.28zM750.628571 956.708571l-1.645714 0.914286zM295.314286 52.114286h-1.462857l2.377142-1.097143zM302.994286 630.674286l-3.84-6.948572c-1.828571-3.474286-3.657143-6.948571-5.302857-10.605714s-3.291429-7.131429-4.937143-10.788571-2.925714-7.314286-4.205715-11.154286-2.56-7.314286-3.657142-11.154286l-3.291429-11.337143c0-3.84-1.645714-7.68-2.56-11.702857s-1.462857-7.68-2.011429-11.52-1.097143-7.862857-1.462857-11.885714 0-7.862857 0-11.702857v-11.885715-11.885714-11.702857c0-3.84 0.914286-7.862857 1.462857-11.702857s1.28-7.862857 2.011429-11.702857 1.645714-7.68 2.742857-11.52 2.011429-7.68 3.108572-11.52 2.377143-7.497143 3.657142-11.154286 2.742857-7.497143 4.205715-11.154286 3.108571-7.131429 4.937143-10.788571 3.474286-7.131429 5.302857-10.605714 3.84-6.948571 5.851428-10.24 4.022857-6.765714 6.217143-10.057143 4.571429-6.4 6.948572-9.691429 4.754286-6.217143 7.131428-9.325714 5.12-6.034286 7.862857-8.96l8.045715-8.594286 8.594285-8.045714 8.96-7.862857 9.325715-7.131429 9.691428-6.948571 10.057143-6.217143 10.24-5.851429 10.605714-5.302857 10.788572-4.937143 11.154285-4.205714 11.154286-3.657143 11.337143-3.108571c3.84-1.097143 7.68-1.828571 11.702857-2.742857l11.52-2.011429 11.885714-1.462857h23.588572H93.988571zM996.571429 362.971429v1.462857zM705.645714 42.057143h-1.462857 2.011429zM658.285714 994.742857h2.194286l-6.4 1.828572zM634.88 18.285714h-1.828571l5.851428 1.462857zM682.422857 33.097143h-1.645714l4.388571 1.645714zM634.88 1001.325714l3.657143-1.097143-5.485714 1.462858zM728.32 52.114286h2.011429zM1008.64 411.245714v-0.182857 0.182857zM969.142857 726.491429l1.462857-3.291429-3.108571 6.582857zM918.674286 208.274286zM969.691429 293.485714v-0.182857 0.182857zM870.034286 868.205714l-1.097143 1.097143zM658.285714 25.234286a32.914286 32.914286 0 0 1-4.022857-1.097143l6.034286 1.828571zM153.6 868.205714zM210.102857 103.131429zM230.4 88.868571zM486.948571 1015.954286zM958.537143 749.714286l2.011428-4.205715-5.485714 10.422858a16.822857 16.822857 0 0 1 3.474286-6.217143zM6.034286 534.857143v-0.914286s-0.182857 0.548571 0 0.914286zM6.034286 485.12a4.022857 4.022857 0 0 0 0 1.462857 18.285714 18.285714 0 0 0 0-3.108571zM77.348571 249.6a6.4 6.4 0 0 0 0-1.462857zM946.285714 770.377143l2.742857-4.937143-6.217142 10.422857zM120.32 831.268571zM932.571429 791.405714c1.645714-2.377143 3.108571-4.937143 4.754285-7.497143l-6.217143 9.691429zM918.674286 811.702857a13.897143 13.897143 0 0 1 1.462857-2.011428l-4.205714 5.485714zM251.428571 75.52l-2.925714 1.828571L256 73.142857zM903.314286 831.268571l1.462857-1.828571-2.377143 2.742857zM273.005714 63.268571h-1.28l3.291429-1.828571z" fill="#1967D2" p-id="10846"></path><path d="M5.851429 533.942857v-23.954286c-0.548571 8.045714-0.365714 15.908571 0 23.954286zM5.302857 509.988571v-23.405714c0.182857 7.131429 0 15.542857 0 23.405714zM10.788571 435.748571c1.28-8.228571 2.742857-16.457143 4.205715-24.502857s3.474286-16.274286 5.485714-24.32 4.205714-16.091429 6.582857-23.954285 5.12-15.725714 7.862857-23.588572 5.851429-15.542857 8.96-23.222857 6.582857-15.177143 10.057143-22.674286 7.314286-14.994286 11.154286-22.308571 7.68-13.897143 11.702857-20.662857A505.234286 505.234286 0 0 0 6.034286 483.474286c0-7.68 0-15.36 1.828571-23.04s1.828571-16.64 2.925714-24.685715zM80.091429 245.211429a43.702857 43.702857 0 0 1-2.377143 3.84l2.377143-3.84zM489.142857 1015.954286h8.96-8.96zM91.428571 791.405714c-4.571429-6.948571-8.96-13.897143-13.348571-21.028571s-8.228571-14.262857-12.251429-21.577143-7.68-14.811429-11.154285-22.308571-6.948571-14.994286-10.057143-22.674286-6.217143-15.36-8.96-23.222857-5.302857-15.542857-7.862857-23.588572-4.571429-15.908571-6.582857-23.954285-3.84-16.091429-5.485715-24.32S12.068571 592.457143 10.788571 585.142857s-2.194286-16.457143-2.925714-24.685714-1.462857-16.091429-1.828571-24.137143a502.308571 502.308571 0 0 0 61.988571 219.428571l10.057143 18.285715a487.314286 487.314286 0 0 0 42.24 59.611428c-5.302857-6.4-10.422857-12.982857-15.36-19.565714s-9.691429-15.725714-13.531429-22.674286zM120.32 831.268571a448.914286 448.914286 0 0 0 33.097143 36.571429c-5.668571-5.668571-11.337143-11.702857-16.822857-18.285714s-10.971429-11.885714-16.274286-18.285715zM437.577143 1011.017143c-8.228571-1.28-16.457143-2.56-24.502857-4.205714s-16.274286-3.474286-24.32-5.485715-16.091429-4.205714-23.954286-6.582857l-23.588571-7.314286c-7.862857-2.742857-15.542857-5.851429-23.222858-8.96s-15.177143-6.582857-22.674285-10.057142-14.994286-7.314286-22.308572-11.154286l-21.577143-12.251429c-7.131429-4.205714-14.08-8.777143-21.028571-13.348571s-13.714286-9.325714-20.297143-14.262857-13.165714-10.057143-19.565714-15.36-12.617143-10.605714-18.285714-16.274286l-18.285715-16.822857a506.514286 506.514286 0 0 0 330.605715 146.834286c-7.497143 0-14.994286 0-22.308572-1.828572s-16.64-1.645714-24.685714-2.925714z" fill="#669DF6" p-id="10847"></path><path d="M720.64 630.674286l-2.011429 3.291428c-2.011429 3.474286-4.022857 6.765714-6.217142 10.057143s-4.571429 6.4-6.948572 9.691429l-7.131428 9.325714c-2.56 2.925714-5.12 6.034286-7.862858 8.96l-8.045714 8.594286-8.594286 8.045714-8.96 7.862857c-3.108571 2.377143-6.217143 4.937143-9.325714 7.131429l-9.691428 6.948571-10.057143 6.217143-10.24 5.851429-10.605715 5.302857-10.788571 4.937143-11.154286 4.205714-11.154285 3.657143-11.52 3.108571c-3.657143 1.097143-7.68 1.828571-11.52 2.742857l-11.52 2.011429-11.885715 1.462857H488.228571l-11.885714-1.462857-11.52-2.011429c-4.022857 0-7.862857-1.645714-11.52-2.742857l-11.52-3.108571-11.154286-3.657143-11.154285-4.205714-10.788572-4.937143-10.605714-5.302857-10.24-5.851429-10.057143-6.217143-9.691428-6.948571-9.325715-7.131429-8.96-7.862857-8.594285-8.045714c-2.742857-2.925714-5.485714-5.668571-8.045715-8.594286l-7.862857-8.96c-2.56-2.925714-4.937143-6.217143-7.131428-9.325714s-4.754286-6.4-6.948572-9.691429-4.205714-6.582857-6.217143-10.057143l-2.011428-3.291428L93.988571 268.8l-13.714285-23.588571-2.377143 3.84a6.4 6.4 0 0 1 0 1.462857c-4.022857 6.765714-7.862857 13.714286-11.702857 20.662857s-7.68 14.811429-11.154286 22.308571-6.948571 14.994286-10.057143 22.674286-6.217143 15.36-8.96 23.222857-5.302857 15.725714-7.862857 23.588572-4.571429 15.908571-6.582857 23.954285-3.84 16.091429-5.485714 24.32-2.925714 16.274286-4.205715 24.502857-2.194286 16.274286-2.925714 24.685715-1.462857 15.36-1.828571 23.04a18.285714 18.285714 0 0 1 0 3.108571V535.588571c0 8.045714 0 16.091429 1.828571 24.137143s1.828571 16.457143 2.925714 24.685715 2.742857 16.274286 4.205715 24.32 3.474286 16.274286 5.485714 24.32 4.205714 16.091429 6.582857 23.954285 5.12 15.908571 7.862857 23.588572 5.851429 15.542857 8.96 23.222857 6.582857 15.177143 10.057143 22.674286 7.314286 14.994286 11.154286 22.308571 8.045714 14.445714 12.251428 21.577143 8.777143 14.08 13.348572 21.028571 9.325714 13.714286 14.262857 20.297143 10.057143 13.165714 15.36 19.565714c5.302857 6.4 10.605714 12.8 16.274286 18.285715s11.154286 12.068571 16.822857 18.285714l18.285714 16.822857c6.217143 5.668571 12.434286 10.971429 18.285714 16.274286s12.982857 10.422857 19.565715 15.36 13.348571 9.691429 20.297142 14.262857 13.897143 9.142857 21.028572 13.348571l21.577143 12.251429c7.314286 3.84 14.811429 7.68 22.308571 11.154286s14.994286 6.948571 22.674286 10.057143 15.36 6.217143 23.222857 8.96l23.954286 8.411428c7.862857 2.377143 15.908571 4.571429 23.954285 6.582857s16.091429 3.84 24.32 5.485715 16.274286 2.925714 24.502858 4.205714 16.274286 2.194286 24.685714 2.925714 14.811429 1.28 22.308571 1.828572h13.531429z" fill="#669DF6" p-id="10848"></path><path d="M633.051429 1001.691429l-21.028572 4.022857zM607.817143 1007.177143zM915.931429 815.177143l-11.154286 14.262857zM654.628571 995.84zM942.811429 775.862857l-5.12 8.045714zM950.857143 763.245714c1.462857-2.742857 2.925714-5.485714 4.571428-8.228571l-6.034285 10.422857zM931.474286 793.6l-11.337143 16.091429c3.84-5.12 7.68-10.605714 11.337143-16.091429zM536.685714 1015.954286h-10.971428a501.211429 501.211429 0 0 0 59.428571-4.937143c-7.862857 1.28-15.908571 2.194286-23.954286 2.925714s-16.274286 1.462857-24.502857 2.011429zM946.285714 249.6l1.097143 2.011429 3.474286 4.388571 6.765714 12.068571 1.462857 2.377143c3.84 7.314286 7.497143 14.811429 11.154286 22.125715-3.84-7.68-7.68-15.542857-11.702857-23.04v-0.731429c-4.388571-8.228571-8.96-16.091429-13.897143-23.954286l1.645714 2.742857zM960.548571 744.594286c2.56-4.937143 5.12-9.874286 7.497143-14.811429-2.377143 4.937143-4.937143 9.874286-7.497143 14.811429zM870.582857 867.474286a450.377143 450.377143 0 0 0 31.817143-35.291429c-4.937143 6.217143-10.057143 12.068571-15.36 18.285714s-10.788571 11.337143-16.457143 17.005715zM833.097143 901.485714c-6.4 5.302857-12.982857 10.422857-19.565714 15.36s-13.348571 9.691429-20.297143 14.262857-13.897143 9.142857-21.028572 13.348572-13.897143 8.045714-21.028571 11.885714a508.342857 508.342857 0 0 0 118.308571-87.771428c-5.668571 5.668571-11.52 11.337143-18.285714 16.64s-11.702857 10.788571-18.102857 16.274285zM498.102857 1016.32h24.32-24.32zM680.96 987.428571l-19.931429 6.582858zM988.708571 339.382857c2.742857 7.68 5.302857 15.177143 7.497143 23.04A491.885714 491.885714 0 0 0 969.142857 293.485714c3.474286 7.497143 6.948571 14.994286 10.057143 22.674286s6.765714 15.36 9.508571 23.222857zM1008.64 411.062857c-3.291429-15.908571-7.131429-31.634286-11.885714-47.177143 2.194286 7.68 4.388571 15.36 6.4 23.04s3.84 15.36 5.485714 24.137143zM1015.771429 460.434286c0.914286 8.228571 1.462857 16.457143 1.828571 24.685714s0 16.64 0 24.868571v24.868572c0 8.228571 0 16.457143-1.828571 24.868571s-1.828571 16.457143-2.925715 24.685715-2.742857 16.274286-4.205714 24.32-3.474286 16.274286-5.485714 24.32-4.205714 16.091429-6.582857 23.954285-5.12 15.908571-7.862858 23.588572-5.851429 15.542857-8.96 23.222857-5.668571 12.982857-8.594285 19.382857a504.32 504.32 0 0 0 36.571428-311.954286c1.462857 8.045714 2.925714 16.274286 4.205715 24.502857s3.108571 16.274286 3.84 24.685715zM749.714286 957.257143l-19.565715 9.691428zM702.902857 979.017143zM727.588571 969.142857c-6.765714 3.108571-13.531429 6.217143-20.48 8.96 6.948571-3.657143 13.714286-6.765714 20.48-8.96z" fill="#AECBFA" p-id="10849"></path><path d="M971.154286 723.2c2.925714-6.4 5.851429-12.8 8.594285-19.382857s6.217143-15.36 8.96-23.222857 5.302857-15.542857 7.862858-23.588572 4.571429-15.908571 6.582857-23.954285 3.84-16.091429 5.485714-24.32 2.925714-16.274286 4.205714-24.32 2.194286-16.457143 2.925715-24.685715 1.462857-16.64 1.828571-24.868571 0-16.64 0-24.868572v-24.868571c0-8.228571 0-16.457143-1.828571-24.685714s-1.828571-16.64-2.925715-24.685715-2.742857-16.457143-4.205714-24.502857q-2.377143-12.068571-5.485714-24.137143c-2.011429-7.68-4.205714-15.36-6.4-23.04v-1.462857c-2.194286-7.862857-4.754286-15.36-7.497143-23.04s-5.851429-15.542857-8.96-23.222857-6.582857-15.177143-10.057143-22.674286c-3.657143-7.314286-7.314286-14.811429-11.154286-22.125714l-1.462857-2.377143H512h23.588571l11.885715 1.462857 11.52 2.011429c3.84 0.914286 7.862857 1.645714 11.52 2.742857l11.52 3.108572 11.154285 3.657142 11.154286 4.205715 10.788572 4.937143 10.605714 5.302857 10.24 5.851428 10.057143 6.217143 9.691428 6.948572c3.108571 2.194286 6.217143 4.754286 9.325715 7.131428l8.96 7.862857 8.594285 8.045715c2.742857 2.925714 5.485714 5.668571 8.045715 8.594285l7.862857 8.96 7.131428 9.325715c2.377143 3.291429 4.754286 6.4 6.948572 9.691428s4.205714 6.582857 6.217143 10.057143 4.022857 6.765714 5.851428 10.24 3.657143 7.131429 5.302857 10.605714 3.291429 7.131429 4.754286 10.788572a117.76 117.76 0 0 1 4.388571 11.154285c1.28 3.657143 2.56 7.497143 3.657143 11.154286s2.194286 7.68 3.108572 11.337143 1.828571 7.862857 2.742857 11.702857 1.462857 7.68 2.011428 11.702857 0.914286 7.68 1.462858 11.702857 0 7.862857 0 11.702858v35.474285c0 3.84 0 7.862857-1.462858 11.885715s-1.28 7.68-2.011428 11.52-1.645714 7.862857-2.742857 11.702857-2.011429 7.497143-3.108572 11.337143-2.377143 7.497143-3.657143 11.154285a117.76 117.76 0 0 1-4.388571 11.154286c-1.462857 3.657143-2.925714 7.131429-4.754286 10.788571s-3.474286 7.131429-5.302857 10.605715l-3.84 6.765714h20.297143v290.194286l-223.268571 82.285714 7.862857 13.897143h11.154285c8.228571 0 16.457143-1.097143 24.685715-2.011429s16.091429-1.645714 23.954285-2.925714h2.377143c6.765714-0.914286 13.531429-2.194286 20.114286-3.474286h4.205714l21.028572-4.754285 5.485714-1.462858c5.485714-1.28 10.788571-2.742857 16.091429-4.388571l6.4-1.828571 19.748571-7.862858 4.571429-1.828571c5.851429-2.011429 11.52-4.205714 17.371428-6.582857l4.205714-1.828572c6.948571-2.742857 13.714286-5.851429 20.48-8.96l2.377143-1.28 19.748572-9.691428 1.645714-0.914286c7.131429-3.84 14.08-7.862857 21.028571-11.885714s14.08-8.777143 21.028572-13.348572 13.714286-9.325714 20.297143-14.262857 13.165714-10.057143 19.565714-15.36 12.617143-10.605714 18.285714-16.274285 11.885714-10.971429 18.285715-16.64l1.097142-1.097143c5.668571-5.668571 11.154286-11.337143 16.457143-17.371429s10.422857-11.702857 15.36-18.285714l2.377143-2.742857 11.154286-14.262857 4.205714-5.485715 11.337143-16.091428 6.217143-9.691429 5.12-8.045714 6.217143-10.422857 6.034285-10.422857 5.485715-10.422858c2.56-4.937143 5.12-9.874286 7.497143-14.811428zM946.285714 249.6l-1.28-2.011429 2.377143 4.022858zM498.102857 1016.137143H512zM512 1016.502857h13.714286z" fill="#AECBFA" p-id="10850"></path><path d="M512 1016.502857h13.714286l-7.862857-13.897143 223.268571-82.285714V630.674286h-20.48L498.102857 1016.137143z" fill="#AECBFA" p-id="10851"></path><path d="M638.902857 19.748571l15.908572 4.388572zM80.274286 245.028571c3.474286-5.485714 6.765714-10.971429 10.422857-16.457142s9.325714-13.714286 14.262857-20.297143 10.057143-13.165714 15.36-19.565715 10.605714-12.617143 16.274286-18.285714 11.154286-12.068571 17.005714-18.285714 11.885714-11.52 18.285714-17.005714 12.434286-10.971429 18.285715-16.274286 12.8-10.24 19.565714-15.177143a503.588571 503.588571 0 0 0-129.645714 141.348571zM341.211429 33.097143L365.714286 25.234286a521.965714 521.965714 0 0 1 48.274285-12.068572l23.588572-4.205714c8.045714-1.097143 16.274286-2.194286 24.685714-2.925714s16.457143-1.462857 24.685714-1.828572 16.64 0 24.868572 0h-9.508572a504.502857 504.502857 0 0 0-206.08 47.542857c7.131429-3.474286 14.445714-6.582857 21.76-9.691428s15.36-5.485714 23.222858-8.96zM685.165714 34.194286l18.285715 7.314285zM706.194286 42.24l21.211428 9.508571zM943.36 245.028571c-7.68-12.434286-15.908571-24.685714-24.502857-36.571428 4.754286 6.4 9.508571 13.165714 14.08 19.931428s6.948571 11.154286 10.422857 16.64zM772.205714 75.52l21.028572 13.348571q10.422857 6.948571 20.297143 14.262858c6.582857 4.937143 13.165714 10.057143 19.565714 15.36s12.617143 10.605714 18.285714 16.274285 12.251429 11.154286 18.285714 17.005715 11.52 11.885714 17.005715 18.285714 10.971429 12.434286 16.274285 18.285714 10.24 12.8 14.994286 18.285714a503.954286 503.954286 0 0 0-188.525714-153.965714c7.131429 3.474286 14.262857 6.948571 21.211428 10.605714zM560.64 5.851429C547.291429 4.571429 533.942857 3.84 520.594286 3.474286H512h24.868571c8.228571 0 15.725714 1.645714 23.771429 2.377143zM210.285714 103.131429zM660.845714 25.965714zM562.285714 6.034286c7.862857 0 15.725714 1.828571 23.588572 2.925714zM274.285714 62.354286l18.285715-9.508572zM586.971429 9.142857l20.48 3.474286zM258.56 71.497143L256 73.142857c5.485714-3.291429 10.971429-6.4 16.64-9.325714zM612.754286 13.714286l20.297143 4.571428zM230.582857 88.685714l18.285714-11.337143z" fill="#1967D2" p-id="10852"></path><path d="M171.702857 134.765714q-9.325714 8.228571-18.285714 17.005715c-5.851429 6.034286-11.52 11.885714-17.005714 18.285714s-10.971429 12.434286-16.274286 18.285714-10.422857 12.8-15.177143 19.931429-9.691429 13.531429-14.262857 20.297143-6.948571 10.971429-10.422857 16.457142l13.714285 23.771429h835.474286l13.897143-23.771429c-3.474286-5.485714-6.765714-10.971429-10.422857-16.457142s-9.325714-13.531429-14.08-19.931429c-4.754286-6.4-9.874286-12.982857-14.994286-18.285714s-10.605714-12.617143-16.274286-18.285715-11.154286-12.068571-17.005714-18.285714-11.885714-11.52-18.285714-17.005714-12.434286-10.971429-18.285714-16.274286-12.982857-10.422857-19.565715-15.36-13.348571-9.691429-20.297143-14.262857l-21.028571-13.348571-21.577143-12.251429c-6.948571-3.657143-14.08-7.131429-21.211428-10.605714h-2.011429l-21.211429-9.508572h-2.011428l-18.285714-7.314285-4.388572-1.645715c-6.582857-2.377143-13.348571-4.571429-19.931428-6.582857l-6.034286-1.828571-15.908572-4.388572-7.497142-5.12-20.297143-4.571428-5.302857-1.097143L586.971429 9.142857H585.142857c-7.862857-1.097143-15.725714-2.194286-23.588571-2.925714h-1.645715c-8.045714 0-15.908571-1.28-23.954285-1.645714s-16.64 0-24.868572 0h-24.868571c-8.228571 0-16.457143 0.914286-24.685714 1.828571s-16.64 1.828571-24.685715 2.925714l-23.771428 3.84a521.965714 521.965714 0 0 0-48.274286 12.068572l-23.588571 7.862857c-7.862857 2.742857-15.542857 5.851429-23.222858 8.96s-14.628571 6.217143-21.76 9.691428l-2.377142 1.097143-18.285715 9.508572-3.291428 1.828571c-5.668571 2.925714-11.154286 6.034286-16.64 9.325714l-6.582857 3.84-18.285715 11.337143c-6.582857 4.388571-13.165714 9.142857-19.565714 13.897143-6.765714 4.937143-13.165714 9.874286-19.565714 15.177143s-13.714286 11.337143-19.931429 17.005714zM80.274286 245.028571zM80.091429 245.211429l13.714285 23.588571-13.714285-23.771429zM945.005714 247.588571l-1.645714-2.742857zM950.857143 256l-3.108572-5.12c3.291429 5.668571 6.582857 11.337143 9.691429 17.188571z" fill="#1967D2" p-id="10853"></path><path d="M945.005714 247.588571l-1.645714-2.56-13.897143 23.771429h27.611429c-3.108571-5.851429-6.4-11.52-9.691429-17.188571z" fill="#1967D2" p-id="10854"></path><path d="M488.228571 269.897143l-11.885714 1.462857-11.52 2.011429c-4.022857 0.914286-7.862857 1.645714-11.702857 2.742857l-11.337143 3.108571-11.154286 3.657143-11.154285 4.205714-10.788572 4.937143-10.605714 5.302857-10.24 5.851429-10.057143 6.217143-9.691428 6.948571-9.325715 7.131429-8.96 7.862857-8.594285 8.045714c-2.742857 2.925714-5.485714 5.668571-8.045715 8.594286l-7.862857 8.96c-2.56 2.925714-4.937143 6.217143-7.131428 9.325714s-4.754286 6.4-6.948572 9.691429-4.205714 6.582857-6.217143 10.057143-4.022857 6.765714-5.851428 10.24-3.657143 7.131429-5.302857 10.605714-3.291429 7.131429-4.937143 10.788571-2.925714 7.314286-4.205715 11.154286-2.56 7.314286-3.657142 11.154286-2.194286 7.68-3.108572 11.52l-2.742857 11.52c-0.914286 3.84-1.462857 7.68-2.011429 11.702857s-1.097143 7.68-1.462857 11.702857 0 7.862857 0 11.702857v35.474286c0 3.84 0.914286 7.862857 1.462857 11.885714s1.28 7.68 2.011429 11.52 1.645714 7.862857 2.56 11.702857l3.291429 11.337143c1.097143 3.84 2.377143 7.497143 3.657142 11.154286s2.742857 7.497143 4.205715 11.154286 3.108571 7.314286 4.937143 10.788571 3.474286 7.131429 5.302857 10.605714l3.84 6.948572h58.331428l-4.388571-5.668572a75.885714 75.885714 0 0 1-5.485714-7.862857c-1.828571-2.56-3.474286-5.302857-5.12-8.045714s-3.108571-5.302857-4.754286-8.228572l-4.205714-8.411428-3.84-8.594286c-1.097143-2.925714-2.377143-5.851429-3.291429-8.777143s-2.194286-6.034286-3.108571-9.142857-1.645714-6.034286-2.56-8.96-1.28-6.217143-2.011429-9.325714l-1.645714-9.325714-1.097143-9.508572v-9.325714-9.508572-9.508571-9.325714l1.097143-9.508572 1.645714-9.325714c0-3.108571 1.28-6.034286 2.011429-9.142857s1.645714-6.217143 2.56-9.142857 2.011429-6.034286 2.925714-8.96 2.377143-6.034286 3.474286-8.96l3.84-8.594286 4.205714-8.411429c1.645714-2.925714 3.108571-5.668571 4.754286-8.228571s3.291429-5.485714 5.12-8.045714a58.331429 58.331429 0 0 1 5.485714-7.68c1.828571-2.56 3.657143-5.12 5.668571-7.497143l6.217143-7.314286 6.582857-6.765714 6.765715-6.582857 7.314285-6.217143 7.314286-5.668572a75.885714 75.885714 0 0 1 7.862857-5.485714c2.56-1.828571 5.302857-3.474286 8.045714-5.12a87.588571 87.588571 0 0 1 8.228572-4.571428c2.742857-1.645714 5.485714-2.925714 8.411428-4.388572l8.594286-3.84c2.925714-1.097143 5.851429-2.377143 8.96-3.291428l8.96-3.108572 9.142857-2.377143c2.925714-0.914286 6.034286-1.462857 9.142857-2.194285l9.325715-1.645715 9.508571-1.097143H512V268.8h-11.885714zM662.308571 630.674286h58.331429v-0.182857h-58.148571l-0.182858 0.182857zM661.028571 632.32c-2.011429 2.56-4.205714 4.937143-6.217142 7.314286l-6.582858 6.765714-6.765714 6.582857-7.314286 6.217143-7.314285 5.851429c-2.56 1.828571-5.12 3.657143-7.862857 5.302857s-5.302857 3.474286-8.045715 5.12a88.32 88.32 0 0 1-8.228571 4.754285l-8.411429 4.205715-8.594285 3.84-8.96 3.474285-8.96 2.925715-9.142858 2.56-9.142857 2.011428-9.325714 1.645715-9.508571 1.097142H493.714286l-9.508572-1.097142-9.325714-1.645715-9.142857-2.011428-9.142857-2.56-8.96-2.925715-8.777143-3.474285-8.594286-3.84-9.691428-4.205715a88.32 88.32 0 0 1-8.228572-4.754285c-2.742857-1.645714-5.485714-3.291429-8.045714-5.12s-5.302857-3.474286-7.862857-5.302857l-7.314286-5.851429-7.314286-6.217143-6.765714-6.582857-6.217143-6.4c-2.011429-2.377143-4.205714-4.754286-6.217143-7.314286l-1.28-1.645714h-58.331428l2.011428 3.291429c2.011429 3.474286 4.022857 6.765714 6.217143 10.057142s4.571429 6.4 6.948572 9.691429 4.754286 6.217143 7.131428 9.325714 5.12 6.034286 7.862857 8.96l8.045715 8.594286 8.594285 8.045714 8.96 7.862857 9.325715 7.131429 9.691428 6.948571 10.057143 6.217143 10.24 5.851429 10.605714 5.302857 10.788572 4.937143 11.154285 4.205714 11.154286 3.657143 11.52 3.108571c3.657143 1.097143 7.497143 1.828571 11.52 2.742858l11.52 2.011428 11.885714 1.462857h47.177143l11.885715-1.462857 11.52-2.011428c3.84 0 7.862857-1.645714 11.52-2.742858l11.52-3.108571 11.154285-3.657143 11.154286-4.205714 10.788571-4.937143 10.605715-5.302857 10.24-5.851429 10.057143-6.217143 9.691428-6.948571c3.108571-2.194286 6.217143-4.754286 9.325714-7.131429l8.96-7.862857 8.594286-8.045714c2.742857-2.925714 5.485714-5.668571 8.045714-8.594286l7.862858-8.96 7.131428-9.325714c2.377143-3.291429 4.754286-6.4 6.948572-9.691429s4.205714-6.582857 6.217142-10.057142l2.011429-3.291429h-58.331429z" fill="#FEFEFD" p-id="10855"></path><path d="M521.325714 317.257143h9.325715l9.508571 1.097143 9.325714 1.645714c3.108571 0 6.217143 1.28 9.142857 2.194286l9.142858 2.377143 8.96 3.108571c3.108571 0.914286 6.034286 2.194286 8.96 3.291429l8.594285 3.84c2.925714 1.462857 5.668571 2.742857 8.411429 4.388571a87.588571 87.588571 0 0 1 8.228571 4.571429c2.742857 1.645714 5.485714 3.291429 8.045715 5.12a75.885714 75.885714 0 0 1 7.862857 5.485714l7.314285 5.668571 7.314286 6.217143 6.765714 6.582857 6.582858 6.765715c2.011429 2.377143 4.205714 4.754286 6.217142 7.314285l5.851429 7.497143c2.011429 2.56 3.657143 5.12 5.302857 7.68s3.474286 5.302857 5.12 8.045714 3.108571 5.302857 4.754286 8.228572 2.742857 5.485714 4.205714 8.411428l3.84 8.594286c1.097143 2.925714 2.377143 5.851429 3.474286 8.96s2.011429 5.851429 2.925714 8.96 1.645714 6.034286 2.56 9.142857 1.28 6.034286 2.011429 9.142857l1.645714 9.325715 1.097143 9.508571v37.668572l-1.097143 9.508571-1.645714 9.325714c0 3.108571-1.28 6.217143-2.011429 9.325715s-1.645714 6.034286-2.56 8.96-2.011429 6.034286-2.925714 9.142857l-3.474286 8.777143-3.84 8.594285c-1.462857 2.925714-2.742857 5.668571-4.205714 8.411429s-3.108571 5.668571-4.754286 8.228571-3.291429 5.485714-5.12 8.045715a75.885714 75.885714 0 0 1-5.485714 7.862857l-4.205714 5.485714h58.148571l3.84-6.765714c1.828571-3.474286 3.657143-7.131429 5.302857-10.605715s3.291429-7.131429 4.754286-10.788571a117.76 117.76 0 0 0 4.388571-11.154286c1.28-3.657143 2.56-7.314286 3.657143-11.154285s2.194286-7.68 3.108572-11.337143 1.828571-7.68 2.742857-11.702857 1.28-7.68 1.28-10.788572 0.914286-7.862857 1.462857-11.885714 0-7.862857 0-11.702857v-11.885715-11.885714-11.702857c0-3.84 0-7.862857-1.462857-11.702857s-1.28-7.862857-2.011429-11.702857-1.645714-7.862857-2.742857-11.702857-2.011429-7.497143-3.108571-11.337143-2.377143-7.497143-3.657143-11.154286a117.76 117.76 0 0 0-4.388572-11.154286c-1.462857-3.657143-2.925714-7.131429-4.754285-10.788571s-3.474286-7.131429-5.302858-10.605714-3.84-6.948571-5.851428-10.24-4.022857-6.765714-6.217143-10.057143-4.571429-6.4-6.948571-9.691429l-7.131429-9.325714c-2.56-2.925714-5.12-6.034286-7.862857-8.96l-8.045714-8.594286-8.594286-8.045714-8.96-7.862857c-3.108571-2.377143-6.217143-4.937143-9.325714-7.131429l-9.691429-6.948571-10.057143-6.217143-10.24-5.851429-9.874286-4.754285-11.52-5.485715-11.154285-4.205714-11.154286-3.657143-11.52-3.108571c-3.657143-1.097143-7.68-1.828571-11.52-2.742857l-11.52-2.011429-11.885714-1.462857h-23.588572v48.274286z" fill="#FEFEFD" p-id="10856"></path><path d="M662.491429 630.491429H512V317.074286h-18.834286l-9.508571 1.097143-9.325714 1.645714c-3.108571 0-6.217143 1.28-9.142858 2.194286l-9.142857 2.377142-8.96 3.108572c-3.108571 0.914286-6.034286 2.194286-8.96 3.291428l-8.594285 3.84c-2.925714 1.462857-5.668571 2.742857-8.411429 4.388572a87.588571 87.588571 0 0 0-8.228571 4.571428c-2.742857 1.645714-5.485714 3.291429-8.045715 5.12a75.885714 75.885714 0 0 0-7.862857 5.485715l-7.314286 5.668571-7.314285 6.217143-6.765715 6.582857-6.582857 6.765714c-2.011429 2.377143-4.205714 4.754286-6.217143 7.314286s-3.84 4.937143-5.668571 7.497143a58.331429 58.331429 0 0 0-5.485714 7.68c-1.828571 2.56-3.474286 5.302857-5.12 8.045714s-3.108571 5.302857-4.754286 8.228572l-4.205714 8.411428-3.84 8.594286c-1.097143 2.925714-2.377143 5.851429-3.474286 8.96s-2.011429 5.851429-2.925714 8.96-1.645714 6.034286-2.56 9.142857-1.28 6.034286-2.011429 9.142857l-1.645714 9.325715-1.097143 9.508571v37.668571l1.097143 9.508572 1.645714 9.325714c0 3.108571 1.28 6.217143 2.011429 9.325714s1.645714 6.034286 2.56 8.96 2.011429 6.034286 3.108571 9.142858 2.194286 5.851429 3.291429 8.777142l3.84 8.594286 4.205714 8.411429c1.645714 2.925714 3.108571 5.668571 4.754286 8.228571s3.291429 5.485714 5.12 8.045714a75.885714 75.885714 0 0 0 5.485714 7.862858l4.388571 5.668571h300.982858zM368.822857 640l6.582857 6.765714 6.765715 6.582857 7.314285 6.217143 7.314286 5.851429c2.56 1.828571 5.12 3.657143 7.862857 5.302857s5.302857 3.474286 8.045714 5.12a88.32 88.32 0 0 0 8.228572 4.754286l8.411428 4.205714 8.594286 3.84 8.96 3.474286 8.96 2.925714 9.142857 2.56 9.142857 2.011429 9.325715 1.645714 9.508571 1.097143h36.937143l9.508571-1.097143 9.325715-1.645714 9.142857-2.011429 9.142857-2.56 8.96-2.925714 8.96-3.474286 8.594286-3.84 9.874285-4.571429a88.32 88.32 0 0 0 8.228572-4.754285c2.742857-1.645714 5.485714-3.291429 8.045714-5.12s5.302857-3.474286 7.862857-5.302857l7.314286-5.851429 7.314286-6.217143 6.765714-6.582857 6.582857-6.765714c2.011429-2.377143 4.205714-4.754286 6.217143-7.314286l1.28-1.645714h-301.714286l1.28 1.645714c2.011429 2.56 4.205714 4.937143 6.217143 7.68z" fill="#1A73E8" p-id="10857"></path><path d="M662.491429 630.491429l4.205714-5.485715a75.885714 75.885714 0 0 0 5.485714-7.862857c1.828571-2.56 3.474286-5.302857 5.12-8.045714s3.108571-5.302857 4.754286-8.228572 2.742857-5.485714 4.205714-8.411428l3.84-8.594286 3.474286-8.777143c0-3.108571 2.011429-6.034286 2.925714-9.142857s1.645714-6.034286 2.56-8.96 1.28-6.217143 2.011429-9.325714l1.645714-9.325714 1.097143-9.508572v-9.325714-9.508572-9.508571-9.325714l-1.097143-9.508572-1.645714-9.325714c0-3.108571-1.28-6.217143-2.011429-9.142857s-1.645714-6.217143-2.56-9.142857-2.011429-6.034286-2.925714-8.96-2.377143-6.034286-3.474286-8.96l-3.84-8.594286c-1.462857-2.925714-2.742857-5.668571-4.205714-8.411429s-3.108571-5.668571-4.754286-8.228571-3.291429-5.485714-5.12-8.045714-3.474286-5.302857-5.302857-7.68-3.84-5.12-5.851429-7.497143l-6.217142-7.314286-6.582858-6.765714-6.765714-6.582857-7.314286-6.217143-7.314285-5.668572a75.885714 75.885714 0 0 0-7.862857-5.485714c-2.56-1.828571-5.302857-3.474286-8.045715-5.12a87.588571 87.588571 0 0 0-8.228571-4.571428c-2.742857-1.645714-5.485714-2.925714-8.411429-4.388572l-9.142857-3.84c-2.925714-1.097143-5.851429-2.377143-8.96-3.291428l-8.96-3.108572-9.142857-2.377143c-2.925714-0.914286-6.034286-1.462857-9.142857-2.194285l-9.325714-1.645715-9.325715-1.097143h-18.285714v312.502858z" fill="#1A73E8" p-id="10858"></path></svg>